<?xml version="1.0" encoding="UTF-8"?>
<!DOCTYPE svg PUBLIC "-//W3C//DTD SVG 1.1//EN" "http://www.w3.org/Graphics/SVG/1.1/DTD/svg11.dtd">
<svg xmlns="http://www.w3.org/2000/svg" version="1.1" width="96px" height="96px" style="shape-rendering:geometricPrecision; text-rendering:geometricPrecision; image-rendering:optimizeQuality; fill-rule:evenodd; clip-rule:evenodd" xmlns:xlink="http://www.w3.org/1999/xlink">
<g><path style="opacity:0.942" fill="#006a5c" d="M 11.5,11.5 C 14.1667,14.1667 14.1667,16.8333 11.5,19.5C 5.68671,19.938 4.02004,17.438 6.5,12C 8.13414,11.5065 9.80081,11.3398 11.5,11.5 Z"/></g>
<g><path style="opacity:0.982" fill="#009688" d="M 11.5,11.5 C 15.5839,11.0431 19.4172,11.7098 23,13.5C 27.0608,23.6819 30.7275,34.0152 34,44.5C 34.5,45.6667 35.3333,46.5 36.5,47C 46.1667,47.6667 55.8333,47.6667 65.5,47C 70.2176,38.3975 74.5509,29.5642 78.5,20.5C 81.8333,19.1667 85.1667,19.1667 88.5,20.5C 83.5687,32.1954 78.2354,43.6954 72.5,55C 59.1708,55.4999 45.8375,55.6666 32.5,55.5C 32.3379,57.5273 32.5045,59.5273 33,61.5C 33.7504,62.1258 34.5838,62.6258 35.5,63C 48.1623,63.4999 60.8289,63.6666 73.5,63.5C 74.0356,66.6981 73.369,69.3647 71.5,71.5C 68.8333,71.5 66.1667,71.5 63.5,71.5C 56.1667,71.5 48.8333,71.5 41.5,71.5C 38.8333,71.5 36.1667,71.5 33.5,71.5C 29.0885,70.9299 25.9218,68.5966 24,64.5C 23.6667,56.5 23.3333,48.5 23,40.5C 20.5237,33.5726 18.357,26.5726 16.5,19.5C 14.8333,19.5 13.1667,19.5 11.5,19.5C 14.1667,16.8333 14.1667,14.1667 11.5,11.5 Z"/></g>
<g><path style="opacity:1" fill="#8ac349" d="M 47.5,15.5 C 50.1667,15.5 52.8333,15.5 55.5,15.5C 55.5,18.1667 55.5,20.8333 55.5,23.5C 58.1667,23.5 60.8333,23.5 63.5,23.5C 63.5,26.1667 63.5,28.8333 63.5,31.5C 60.8333,31.5 58.1667,31.5 55.5,31.5C 55.5,34.1667 55.5,36.8333 55.5,39.5C 52.8333,39.5 50.1667,39.5 47.5,39.5C 47.5,36.8333 47.5,34.1667 47.5,31.5C 44.8333,31.5 42.1667,31.5 39.5,31.5C 39.5,28.8333 39.5,26.1667 39.5,23.5C 42.1667,23.5 44.8333,23.5 47.5,23.5C 47.5,20.8333 47.5,18.1667 47.5,15.5 Z"/></g>
<g><path style="opacity:0.921" fill="#37474f" d="M 33.5,71.5 C 36.1667,71.5 38.8333,71.5 41.5,71.5C 43.463,74.518 43.963,77.8513 43,81.5C 34,86.1667 30.3333,83.5 32,73.5C 32.7172,72.9558 33.2172,72.2891 33.5,71.5 Z"/></g>
<g><path style="opacity:0.921" fill="#37474f" d="M 63.5,71.5 C 66.1667,71.5 68.8333,71.5 71.5,71.5C 73.463,74.518 73.963,77.8513 73,81.5C 64,86.1667 60.3333,83.5 62,73.5C 62.7172,72.9558 63.2172,72.2891 63.5,71.5 Z"/></g>
<g><path style="opacity:1" fill="#5d7987" d="M 36.5,75.5 C 39.8606,76.2032 40.1939,77.5365 37.5,79.5C 35.3576,78.5629 35.0243,77.2296 36.5,75.5 Z"/></g>
<g><path style="opacity:1" fill="#5d7987" d="M 66.5,75.5 C 69.8606,76.2032 70.1939,77.5365 67.5,79.5C 65.3576,78.5629 65.0243,77.2296 66.5,75.5 Z"/></g>
</svg>
