<?xml version="1.0" standalone="no"?>
<!DOCTYPE svg PUBLIC "-//W3C//DTD SVG 20010904//EN"
 "http://www.w3.org/TR/2001/REC-SVG-20010904/DTD/svg10.dtd">
<svg version="1.0" xmlns="http://www.w3.org/2000/svg"
 width="2000.000000pt" height="2000.000000pt" viewBox="0 0 2000.000000 2000.000000"
 preserveAspectRatio="xMidYMid meet">
<metadata>
Created by potrace 1.16, written by Peter Selinger 2001-2019
</metadata>
<g transform="translate(0.000000,2000.000000) scale(0.100000,-0.100000)"
fill="#000000" stroke="none">
<path d="M10550 18073 c-85 -6 -255 -34 -360 -60 -325 -79 -541 -202 -725
-416 -92 -107 -119 -119 -280 -128 -148 -9 -219 -25 -324 -75 -246 -115 -442
-363 -497 -627 -20 -91 -19 -269 0 -368 56 -291 261 -579 578 -815 57 -42 104
-77 106 -79 1 -1 -28 -32 -65 -68 -119 -115 -170 -231 -159 -361 5 -58 41
-224 86 -400 26 -104 25 -135 -9 -306 -44 -213 -47 -287 -21 -460 63 -420 177
-851 305 -1155 71 -166 77 -144 -77 -255 l-133 -96 0 -41 c0 -23 -3 -44 -7
-48 -10 -11 -362 -85 -378 -80 -10 3 -29 53 -53 137 -48 166 -108 294 -177
378 -237 285 -678 526 -1195 655 -82 21 -152 39 -155 42 -3 3 -8 48 -11 102
-9 157 -68 254 -188 310 -81 37 -202 37 -282 0 -106 -50 -167 -137 -192 -275
l-12 -69 -55 -7 c-30 -4 -129 -14 -220 -23 -298 -30 -578 -87 -808 -166 -278
-96 -427 -194 -531 -348 -42 -62 -173 -305 -275 -508 -36 -73 -74 -136 -83
-141 -10 -5 -79 -21 -154 -36 -239 -46 -517 -138 -658 -219 -102 -58 -203
-154 -238 -225 -23 -47 -28 -69 -27 -127 1 -82 16 -119 78 -201 81 -106 203
-196 403 -295 333 -164 685 -261 1363 -374 85 -14 156 -27 157 -29 2 -2 -18
-32 -43 -67 -85 -115 -202 -298 -239 -373 -48 -97 -55 -164 -26 -269 22 -82
71 -186 129 -277 41 -64 42 -90 9 -156 -84 -169 -181 -458 -211 -631 -20 -112
-20 -262 -1 -336 32 -122 200 -410 339 -582 81 -99 256 -275 359 -362 167
-140 293 -178 450 -137 76 20 378 169 512 253 313 198 555 406 839 724 43 48
80 86 82 84 3 -2 -11 -87 -30 -188 -19 -101 -40 -222 -47 -269 -17 -119 -15
-347 5 -445 30 -148 22 -220 -79 -770 -70 -380 -135 -786 -135 -846 0 -17 20
1 45 41 82 130 220 614 323 1130 l19 95 26 -85 c65 -211 79 -424 40 -593 -11
-48 -18 -87 -17 -87 24 0 84 245 100 404 8 82 -17 221 -76 426 -78 266 -85
309 -85 525 l0 190 78 390 79 390 84 170 c101 205 182 455 147 455 -5 0 -58
-100 -120 -223 -61 -122 -118 -231 -127 -242 -13 -18 -13 -14 -1 37 40 173 50
290 49 583 0 193 -6 342 -17 445 -53 507 -52 491 -37 501 8 5 40 9 70 9 91 0
506 39 650 60 74 11 138 20 142 20 4 0 -15 -35 -41 -78 -61 -98 -115 -205
-175 -347 -60 -143 -79 -173 -121 -191 -26 -11 -35 -20 -35 -38 0 -36 18 -44
124 -57 70 -9 99 -17 105 -28 5 -9 -5 -118 -25 -261 -80 -589 -179 -1324 -225
-1670 -27 -206 -65 -485 -84 -620 -55 -387 -65 -501 -80 -900 -4 -85 -8 -173
-10 -195 -2 -22 -7 -117 -11 -211 -6 -144 -4 -184 11 -250 23 -105 29 -115 44
-73 11 31 19 135 36 494 8 157 23 464 30 590 7 125 21 251 46 425 18 124 103
749 289 2130 52 382 75 528 85 536 8 6 75 14 147 17 412 17 698 184 993 581
48 65 88 116 90 114 1 -2 27 -43 56 -93 157 -267 320 -448 489 -543 30 -17 96
-44 145 -61 119 -38 159 -55 355 -143 91 -41 182 -81 203 -87 49 -16 57 -35
64 -140 l6 -87 -31 -26 c-17 -14 -75 -41 -129 -58 -54 -18 -145 -52 -203 -75
-58 -24 -143 -55 -189 -70 -133 -43 -181 -107 -181 -244 0 -79 19 -148 57
-204 29 -42 34 -58 29 -87 -27 -168 -15 -227 66 -315 49 -54 50 -56 43 -104
-10 -71 9 -129 58 -175 l42 -40 -4 -137 c-2 -119 0 -143 17 -182 34 -76 112
-122 289 -168 220 -56 306 -50 352 24 20 33 23 34 103 41 46 3 110 10 142 15
62 10 89 4 100 -24 3 -9 1 -64 -5 -123 -14 -129 -6 -328 21 -582 11 -102 20
-234 20 -295 0 -179 -29 -268 -169 -518 -43 -78 -91 -171 -106 -207 -31 -74
-56 -160 -47 -160 4 1 30 33 57 72 124 176 274 338 314 338 30 0 59 -36 102
-125 39 -82 109 -299 109 -337 0 -42 124 -498 134 -495 17 6 22 65 15 172 -22
303 -22 379 -5 438 18 64 48 90 115 102 103 19 659 157 694 173 65 29 102 79
136 184 16 51 32 109 36 130 10 54 41 76 177 123 611 212 1106 523 1360 855
250 328 356 710 283 1020 -19 79 -106 316 -185 500 -99 231 -118 314 -124 524
-4 128 -6 140 -36 206 -42 89 -91 136 -207 196 -71 37 -102 64 -142 122 -123
181 -240 443 -418 932 -180 495 -266 694 -325 751 -51 49 -88 63 -344 134
-131 37 -315 88 -409 115 -93 26 -246 69 -340 95 -265 73 -362 104 -374 119
-10 12 -91 424 -91 464 0 9 -10 35 -21 60 -24 49 -20 47 -204 104 -71 23 -136
46 -143 53 -11 10 -9 40 11 169 14 87 29 162 34 167 5 5 25 4 48 -2 121 -34
435 95 605 248 65 59 142 175 171 260 33 95 33 242 0 326 -42 108 -119 183
-228 223 -27 9 -52 20 -56 24 -11 10 44 100 61 100 7 0 43 -16 80 -35 76 -41
227 -90 322 -105 239 -37 447 35 627 217 118 120 188 248 229 418 26 107 24
345 -4 449 -33 119 -85 207 -179 303 -91 92 -95 102 -62 173 108 232 131 509
62 750 -27 93 -87 211 -152 297 -126 167 -302 287 -508 349 -121 36 -313 44
-434 19 -119 -26 -140 -25 -155 5 -91 191 -123 248 -182 321 -186 230 -505
394 -872 449 -76 11 -298 19 -380 13z m260 -128 c47 -3 135 -16 195 -30 489
-111 758 -334 870 -720 24 -83 26 -103 23 -245 -2 -129 0 -155 12 -155 19 0
49 102 57 199 8 104 22 120 133 153 229 67 458 30 659 -106 288 -196 426 -497
378 -826 -17 -118 -52 -236 -98 -326 -40 -81 -51 -89 -117 -89 -99 0 -253 -46
-222 -65 7 -5 72 -11 144 -14 164 -8 213 -28 308 -129 111 -118 158 -246 158
-433 0 -132 -24 -229 -88 -359 -38 -78 -61 -110 -132 -181 -102 -104 -188
-152 -308 -173 -29 -5 -23 1 42 44 86 58 153 139 187 228 23 59 38 243 25 296
-6 25 -7 25 -47 11 -111 -39 -222 -6 -320 97 -145 150 -284 451 -379 821 l-37
148 -32 -50 c-41 -64 -100 -117 -139 -126 -67 -14 -145 54 -172 151 -11 38
-11 66 0 155 7 59 10 116 6 125 -7 18 2 18 -181 -5 -124 -15 -426 26 -582 80
-224 77 -391 234 -478 448 -33 81 -71 221 -85 319 -7 42 -14 81 -17 85 -11 17
-166 -285 -239 -464 -60 -149 -94 -207 -150 -258 -58 -55 -91 -68 -189 -76
-44 -3 -93 -9 -109 -12 l-29 -5 35 48 c66 90 143 269 164 381 8 40 -12 46 -26
8 -70 -184 -198 -323 -372 -405 -190 -88 -297 -91 -458 -12 -90 44 -200 148
-280 265 -29 43 -55 75 -58 72 -3 -2 7 -43 22 -89 31 -93 112 -227 190 -313
l48 -53 -41 0 c-95 0 -217 75 -297 184 -33 45 -51 61 -56 52 -4 -7 -17 -48
-28 -90 -63 -228 9 -456 225 -710 67 -79 51 -74 -55 16 -182 155 -317 361
-371 563 -31 115 -31 290 0 399 96 343 434 602 745 570 78 -8 88 -14 88 -50 0
-16 -1 -85 -2 -154 -2 -107 1 -133 19 -182 39 -102 46 -92 46 70 0 171 13 234
75 358 95 189 289 335 612 460 154 60 282 88 498 107 35 3 70 2 230 -8z m-267
-1575 c447 -66 875 -252 1222 -533 182 -147 404 -390 532 -583 44 -65 54 -89
50 -111 -7 -39 -218 -504 -226 -498 -4 2 -38 49 -75 104 -38 55 -89 124 -113
153 -44 52 -175 158 -194 158 -6 0 22 -37 62 -82 86 -100 162 -205 196 -273
l25 -50 -78 85 c-274 299 -509 481 -809 630 -291 145 -580 223 -930 251 -258
21 -650 0 -904 -47 -46 -8 -84 -14 -86 -12 -8 9 154 702 168 715 31 32 358 96
571 113 160 12 428 3 589 -20z m-234 -846 c385 -46 754 -183 1068 -397 116
-79 111 -66 85 -220 -12 -73 -27 -190 -33 -260 -22 -244 6 -696 45 -735 29
-29 68 2 291 239 50 53 103 104 118 114 l29 18 25 -31 c21 -28 31 -32 71 -32
181 0 301 -159 262 -347 -33 -157 -158 -296 -358 -397 -63 -32 -224 -86 -256
-86 -12 0 -55 16 -95 35 -112 54 -126 43 -141 -117 -6 -56 -26 -192 -45 -302
-50 -288 -67 -422 -63 -493 l3 -62 -59 -71 c-33 -39 -91 -99 -129 -133 -72
-64 -220 -178 -224 -173 -2 2 19 50 46 108 28 57 68 154 91 214 48 126 143
435 136 441 -7 7 -20 -23 -79 -177 -197 -517 -316 -707 -508 -809 -35 -18
-112 -65 -172 -103 -59 -38 -127 -76 -150 -84 -58 -21 -180 -44 -234 -44 -44
0 -45 1 -39 28 4 15 9 56 13 91 5 52 3 63 -8 59 -15 -5 -63 -96 -74 -140 -3
-15 -15 -30 -25 -33 -30 -10 -103 12 -121 37 -41 54 -159 299 -173 358 -17 69
-21 134 -8 128 4 -2 39 -24 77 -49 89 -58 173 -94 276 -121 150 -37 218 -12
395 148 342 308 603 621 851 1019 27 44 53 87 58 95 10 16 -49 -32 -220 -180
-271 -235 -433 -363 -619 -488 -165 -111 -211 -135 -297 -157 -85 -23 -250
-23 -349 0 -139 32 -314 129 -374 208 -105 138 -288 734 -372 1212 -33 192
-30 320 16 545 34 168 60 351 85 610 17 173 49 383 66 436 5 17 20 36 32 42
41 22 338 60 587 76 98 6 372 -4 499 -20z m-3575 -1835 c29 -34 34 -93 15
-162 l-10 -38 -92 7 c-121 9 -141 15 -145 43 -5 32 24 103 51 129 35 33 79 52
119 52 28 0 42 -7 62 -31z m-79 -350 c253 -25 569 -104 825 -204 138 -54 196
-82 425 -206 193 -105 313 -257 365 -464 39 -152 39 -470 1 -517 -19 -23 -75
-32 -401 -62 -359 -35 -993 -44 -1375 -20 -500 30 -715 61 -1063 150 -217 55
-830 258 -856 284 -18 17 -17 21 39 146 139 311 217 447 302 524 286 262 1098
435 1738 369z m-2017 -1230 c671 -236 1385 -331 2487 -333 499 -1 590 3 937
41 87 9 160 14 164 11 14 -15 -57 -119 -136 -198 -144 -145 -391 -291 -718
-425 l-113 -46 -242 2 c-719 5 -1511 94 -2092 234 -265 64 -484 156 -573 242
-42 39 -44 45 -38 82 7 43 142 409 158 429 6 6 13 12 16 12 3 0 71 -23 150
-51z m-362 -111 c-102 -288 -98 -278 -116 -265 -10 7 -50 41 -90 77 -40 36
-77 67 -83 69 -19 7 4 -73 35 -122 17 -26 56 -70 87 -98 78 -70 278 -201 321
-210 19 -4 94 -28 165 -54 287 -102 610 -174 1060 -234 548 -74 970 -101 1556
-101 549 0 816 18 1097 76 273 56 412 137 412 238 0 16 -15 99 -34 185 -19 86
-37 175 -41 198 l-7 43 115 -40 c343 -118 534 -225 613 -345 49 -73 54 -121
20 -179 -94 -161 -490 -301 -1046 -370 -543 -68 -1047 -80 -1758 -41 -865 48
-1606 164 -2244 351 -573 167 -917 377 -918 557 0 30 37 92 74 125 115 101
378 205 675 267 181 37 170 51 107 -127z m4393 60 c52 -29 279 -243 269 -254
-3 -2 -71 19 -153 48 -162 57 -168 61 -201 162 -16 47 -16 50 2 63 23 17 18
18 83 -19z m3863 -153 c304 -86 577 -162 606 -171 l53 -15 -104 -109 c-58 -60
-132 -146 -166 -190 -61 -81 -136 -221 -129 -241 2 -6 37 33 78 87 183 246
384 440 435 420 31 -11 111 -200 269 -631 155 -421 240 -629 333 -815 45 -90
81 -166 79 -167 -1 -2 -22 10 -46 26 -50 33 -126 126 -218 264 -36 53 -67 95
-69 93 -11 -11 66 -178 117 -255 96 -143 189 -219 400 -327 200 -102 229 -148
229 -379 1 -93 7 -157 21 -225 12 -52 37 -183 56 -290 38 -218 64 -326 99
-415 13 -33 25 -67 28 -75 14 -41 5 138 -12 225 -11 55 -22 125 -25 155 l-6
55 31 -65 c79 -164 114 -590 65 -775 -22 -82 -85 -211 -143 -293 -60 -85 -253
-278 -363 -364 -218 -168 -447 -283 -705 -353 -110 -30 -213 -31 -270 -4 l-30
14 -6 196 c-7 213 -6 201 -54 574 -19 143 -39 309 -45 369 -20 197 -56 342
-137 544 -25 62 -43 115 -40 118 2 3 47 9 98 15 52 6 157 21 234 35 358 62
421 65 590 25 139 -34 317 -121 435 -215 24 -19 46 -33 48 -31 9 8 -32 68 -79
114 -47 47 -150 113 -244 157 -76 36 -81 101 -14 193 48 66 109 86 289 91 l35
1 -30 17 c-23 12 -55 16 -135 16 -128 0 -195 -16 -390 -94 -192 -77 -275 -95
-420 -94 -200 2 -336 44 -431 131 -103 96 -242 333 -303 517 -79 237 -93 501
-40 746 17 82 79 280 99 320 49 97 15 92 -52 -8 -170 -254 -291 -526 -352
-792 l-19 -85 -1 155 c-1 158 13 274 43 359 20 56 20 58 -5 35 -32 -29 -47
-64 -59 -140 -31 -201 -33 -210 -40 -182 -4 14 -11 62 -15 105 -4 44 -10 85
-14 92 -4 6 -16 -41 -26 -106 -15 -93 -20 -178 -21 -408 -1 -276 -3 -293 -24
-350 -13 -33 -34 -77 -48 -98 -24 -36 -26 -37 -43 -20 -21 22 -128 221 -214
398 -117 239 -143 362 -112 513 20 95 10 136 -39 159 -29 14 -42 15 -77 6 -71
-19 -176 -85 -230 -143 -47 -51 -107 -160 -107 -195 0 -8 -4 -15 -8 -15 -5 0
-21 46 -37 103 -72 259 -169 490 -271 643 -30 47 -60 99 -65 117 -29 103 14
264 91 335 40 38 167 118 430 272 380 222 538 333 621 438 24 31 47 51 55 48
7 -3 262 -75 566 -161z m-6945 -1136 c-19 -39 -19 -41 -2 -80 52 -113 673
-602 822 -645 65 -19 151 -21 212 -4 97 26 424 176 586 269 48 28 89 51 91 51
7 0 4 -187 -6 -325 -19 -268 -38 -350 -83 -359 -12 -3 -53 -10 -92 -17 -80
-14 -167 -44 -345 -121 -150 -66 -211 -97 -188 -98 55 -1 329 75 400 111 88
45 122 12 90 -87 -11 -32 -32 -102 -47 -154 -60 -214 -97 -310 -147 -387 -56
-85 -341 -373 -467 -471 -128 -99 -134 -106 -127 -130 11 -33 42 -37 84 -9 81
53 199 155 354 307 90 88 164 160 165 160 13 0 -66 -136 -137 -235 -94 -133
-98 -150 -23 -96 80 58 199 233 253 371 16 43 66 223 110 401 45 178 88 330
95 338 8 8 35 26 62 40 95 52 115 139 135 592 11 264 11 277 -8 314 -13 26
-33 46 -63 62 -24 13 -51 33 -59 45 -14 20 -13 23 11 44 48 41 146 64 274 64
l114 0 -5 -42 c-3 -24 -17 -169 -31 -323 -48 -525 -93 -739 -214 -1025 -210
-494 -670 -1045 -1032 -1239 -261 -139 -571 -170 -772 -78 -64 29 -119 82
-226 216 -150 188 -284 409 -311 511 -17 63 -15 211 4 300 36 166 136 460 157
460 5 0 26 -7 47 -16 86 -36 159 -46 397 -54 132 -5 314 -12 403 -16 131 -6
166 -4 172 6 15 24 -1 40 -39 40 -93 0 -375 62 -499 110 -270 104 -465 291
-558 536 -46 122 -35 155 125 398 65 98 65 99 80 75 44 -66 119 -143 195 -200
99 -74 269 -169 260 -144 -4 8 -80 79 -170 155 -90 77 -178 159 -194 181 -86
119 -19 221 156 238 7 1 3 -16 -9 -40z m1693 -288 c34 -2 -129 -110 -282 -187
l-71 -36 50 94 c28 51 56 103 62 116 12 22 16 23 119 18 59 -2 114 -5 122 -5z
m-764 -51 c113 -36 202 -39 292 -11 33 10 65 15 71 12 6 -4 13 -34 17 -67 10
-109 -33 -149 -251 -225 -173 -61 -222 -43 -563 211 -100 74 -123 99 -79 85
12 -4 51 -9 87 -12 52 -3 78 1 135 21 88 32 157 29 291 -14z m5000 -122 c-18
-206 -18 -285 -1 -344 45 -155 205 -507 309 -677 136 -224 221 -446 265 -697
11 -63 28 -145 38 -182 24 -97 14 -122 -97 -241 -50 -53 -105 -106 -122 -118
l-30 -22 16 31 c15 30 21 62 11 62 -2 0 -73 -35 -157 -79 -84 -43 -189 -91
-233 -106 -107 -38 -232 -44 -367 -20 -101 19 -120 17 -98 -10 12 -14 10 -16
-11 -11 -13 3 -52 10 -86 16 -134 23 -168 55 -167 155 1 34 7 74 15 91 20 42
87 71 209 90 138 21 173 33 184 66 19 53 6 58 -82 32 -130 -37 -226 -54 -311
-54 l-81 0 -19 38 c-27 53 -45 151 -33 182 9 22 23 29 108 49 127 30 302 94
327 120 11 11 17 26 14 35 -10 27 -79 19 -210 -23 -222 -72 -328 -90 -348 -60
-30 47 -40 199 -15 224 7 7 105 44 217 81 186 61 207 70 242 106 46 49 48 84
4 81 -16 -1 -85 -24 -155 -52 -70 -27 -167 -60 -216 -72 -78 -19 -91 -20 -112
-8 -12 8 -23 18 -23 22 0 5 -7 14 -15 20 -9 7 -23 46 -32 91 -20 96 -10 146
33 165 56 26 546 181 618 196 90 18 218 19 303 1 35 -7 65 -10 67 -6 6 10 -33
44 -70 63 -16 8 -59 22 -94 30 -36 9 -69 21 -74 26 -27 27 -35 336 -12 457 19
98 45 153 104 213 40 41 156 111 184 111 5 0 7 -29 3 -72z m1108 -1255 c6 -12
4 -14 -10 -9 -43 13 -247 45 -354 56 -148 15 -164 21 -155 60 6 28 48 129 104
252 l22 47 192 -195 c106 -108 196 -203 201 -211z m-254 -53 c158 -24 310 -62
355 -90 76 -47 191 -375 230 -660 22 -158 31 -712 16 -990 -21 -393 -51 -599
-111 -764 -28 -76 -37 -90 -64 -101 -35 -14 -566 -138 -571 -133 -2 2 3 32 11
68 75 359 108 959 75 1365 -32 395 -102 829 -187 1169 -14 54 -24 100 -22 102
7 6 122 -277 163 -401 69 -210 104 -389 121 -613 3 -51 8 -91 10 -89 2 2 4 67
5 144 0 117 -6 173 -36 344 -41 236 -76 376 -118 474 -46 110 -68 175 -62 185
9 14 32 13 185 -10z m-512 -1209 c16 -10 18 -40 26 -421 12 -522 40 -803 105
-1075 21 -84 16 -109 -16 -89 -23 14 -69 197 -93 361 -12 90 -37 354 -45 473
-3 52 -7 129 -10 170 -3 41 -7 184 -11 318 -5 184 -3 246 6 257 14 17 20 18
38 6z"/>
<path d="M10020 17771 c-129 -41 -219 -105 -335 -238 -51 -58 -75 -93 -73
-107 7 -48 39 -29 167 96 159 157 234 210 350 253 l36 14 -45 -1 c-25 0 -70
-8 -100 -17z"/>
<path d="M12974 16628 c37 -131 29 -307 -24 -532 -17 -71 -29 -135 -26 -142 3
-8 14 -14 25 -14 15 0 25 14 40 54 40 108 56 213 56 371 0 148 0 151 -32 218
-31 66 -52 89 -39 45z"/>
<path d="M9445 16195 c-5 -16 -23 -89 -41 -162 -18 -73 -49 -167 -69 -209 -19
-42 -33 -79 -31 -81 2 -2 19 9 38 26 45 39 93 131 113 212 16 68 19 191 5 224
-7 18 -8 17 -15 -10z"/>
<path d="M10656 16155 c-16 -107 -41 -185 -131 -400 l-17 -40 40 39 c76 73
133 222 131 346 -1 90 -14 121 -23 55z"/>
<path d="M12203 15090 c-84 -56 -183 -182 -183 -234 0 -19 0 -19 21 0 20 18
196 216 228 257 22 28 -3 20 -66 -23z"/>
<path d="M10580 15050 c-58 -4 -154 -8 -214 -9 l-109 -1 6 -44 c9 -61 24 -90
60 -112 28 -17 51 -19 182 -18 83 0 213 2 290 5 174 5 219 -8 309 -91 l59 -55
-6 57 c-11 115 -82 210 -185 248 -63 24 -229 32 -392 20z"/>
<path d="M9275 15037 c-38 -18 -60 -43 -79 -89 -20 -48 -36 -117 -27 -122 4
-3 24 13 46 35 21 21 55 44 74 49 51 14 142 12 236 -5 104 -19 150 -19 191 1
36 17 65 77 47 95 -15 15 -200 39 -338 45 -90 3 -127 1 -150 -9z"/>
<path d="M9880 14933 c1 -10 7 -47 15 -83 26 -117 20 -174 -31 -322 -57 -165
-109 -276 -162 -348 -92 -122 -97 -132 -97 -176 0 -31 6 -49 24 -68 22 -23 58
-37 49 -18 -32 61 -37 83 -27 109 l11 28 24 -51 c22 -47 111 -150 121 -140 2
2 -10 33 -28 67 -43 84 -45 146 -6 211 53 91 174 344 187 391 13 47 10 186 -5
232 l-7 20 13 -20 c31 -50 56 -29 40 33 -14 50 -58 111 -66 90 -3 -8 -1 -27 5
-43 6 -15 9 -30 6 -32 -4 -5 -46 101 -46 117 0 5 -4 12 -10 15 -5 3 -10 -2
-10 -12z"/>
<path d="M9350 14744 c-67 -22 -100 -37 -100 -46 0 -6 12 -8 31 -4 l31 6 -51
-56 c-74 -80 -65 -94 21 -34 78 55 113 63 123 28 4 -13 14 -38 23 -56 12 -28
13 -37 2 -58 -7 -13 -10 -27 -7 -30 13 -13 154 -16 210 -4 55 11 57 13 57 43
0 18 7 41 15 51 23 31 18 46 -15 46 -41 0 -100 26 -100 43 0 19 52 29 87 16
15 -5 36 -22 45 -37 10 -15 27 -39 40 -55 22 -27 22 -28 4 -62 -19 -35 -16
-65 7 -65 19 0 52 33 66 68 26 62 -52 178 -136 201 -37 11 -324 14 -353 5z"/>
<path d="M10526 14695 c-47 -16 -91 -57 -117 -107 -23 -45 -32 -47 -47 -13
-20 43 -35 30 -28 -22 7 -46 41 -93 67 -93 13 0 44 33 97 104 24 32 46 56 48
53 3 -3 11 -31 19 -64 7 -32 16 -69 21 -82 7 -22 5 -23 -22 -17 l-29 6 27 -24
c51 -46 237 -59 353 -24 l40 12 -32 4 c-32 3 -32 3 -26 50 6 54 -1 64 -63 84
-28 9 -39 19 -39 33 0 16 6 20 32 19 48 -3 111 -37 192 -105 40 -34 75 -59 78
-55 8 7 -40 87 -70 114 -16 16 -23 30 -19 44 3 11 -1 24 -9 29 -30 19 -119 40
-234 54 -145 18 -188 18 -239 0z"/>
<path d="M11872 14139 c-88 -44 -200 -214 -210 -320 -4 -46 -3 -49 24 -61 73
-31 83 -67 27 -95 -69 -33 -51 -89 25 -80 50 5 97 44 105 84 6 34 -9 85 -35
118 l-22 28 23 18 c13 11 38 19 57 19 45 0 74 -30 74 -75 0 -45 13 -45 35 1
15 32 15 41 3 71 -20 54 -58 77 -123 77 -30 0 -55 3 -55 7 0 4 15 27 33 51
102 134 237 113 237 -37 0 -53 -29 -143 -63 -194 -39 -59 -42 -77 -12 -97 23
-15 27 -15 48 -1 28 18 89 132 107 200 18 67 9 176 -19 221 -50 81 -167 110
-259 65z"/>
<path d="M10575 13704 c-224 -83 -456 -91 -753 -27 -70 15 -147 27 -171 28
-69 0 -71 -14 -21 -141 83 -213 84 -240 19 -326 -22 -29 -38 -60 -37 -68 8
-45 196 -85 353 -77 293 17 498 160 645 450 50 99 60 143 38 165 -15 15 -23
14 -73 -4z m-710 -126 c92 -19 143 -23 311 -23 193 0 200 -1 173 -17 -180
-109 -560 -77 -630 54 -10 19 -9 20 12 15 13 -4 74 -17 134 -29z"/>
<path d="M9680 12961 c41 -82 135 -122 238 -100 45 9 64 20 103 60 27 26 49
52 49 58 0 5 -25 2 -57 -7 -86 -23 -215 -20 -288 6 -32 12 -61 22 -62 22 -2 0
6 -18 17 -39z"/>
<path d="M5825 13169 c-183 -27 -450 -165 -622 -324 -79 -73 -187 -210 -251
-322 -50 -85 -122 -232 -122 -248 0 -10 43 -26 131 -51 13 -4 26 19 60 98 88
208 166 327 308 468 118 118 264 216 466 316 155 76 158 81 30 63z"/>
<path d="M4715 11988 c-2 -7 -29 -83 -60 -170 -60 -170 -66 -212 -35 -251 38
-48 131 -42 159 11 21 39 112 365 104 372 -10 9 -132 50 -150 50 -8 0 -16 -6
-18 -12z"/>
<path d="M3590 11645 c0 -20 127 -124 225 -185 150 -91 378 -190 440 -190 18
0 25 5 25 18 0 35 -48 64 -221 132 -138 55 -282 128 -374 189 -80 54 -95 60
-95 36z"/>
<path d="M9170 11284 c-126 -87 -299 -163 -451 -198 -35 -8 -138 -25 -229 -36
-161 -21 -208 -36 -184 -60 5 -5 44 -15 87 -21 185 -27 497 51 680 170 100 66
192 153 184 174 -9 23 -13 22 -87 -29z"/>
<path d="M12075 11900 c-4 -6 -4 -14 -1 -17 9 -9 515 -222 581 -245 33 -11 83
-21 110 -22 47 -1 50 0 50 24 0 21 -11 30 -65 57 -79 39 -350 130 -515 173
-66 17 -127 33 -137 36 -9 3 -19 0 -23 -6z"/>
<path d="M7015 10097 c-76 -41 -141 -80 -143 -87 -3 -7 3 -19 13 -26 14 -11
29 -9 89 13 93 33 208 89 235 115 32 29 23 52 -19 56 -27 2 -66 -14 -175 -71z"/>
<path d="M11790 9050 c0 -7 13 -54 29 -105 28 -86 61 -231 76 -337 9 -58 26
-84 50 -74 16 6 17 15 11 81 -4 41 -16 110 -27 153 -28 113 -139 337 -139 282z"/>
<path d="M12558 6472 c-114 -42 -210 -80 -214 -84 -13 -14 32 -9 167 18 150
29 226 55 269 90 30 26 31 55 1 53 -9 0 -109 -35 -223 -77z"/>
<path d="M8805 9937 c-46 -18 -71 -39 -95 -80 -29 -48 -25 -128 9 -175 12 -18
18 -32 12 -32 -6 0 -11 -4 -11 -10 0 -5 11 -10 25 -10 14 0 44 -5 68 -12 89
-24 218 46 253 137 20 54 16 62 -18 35 -29 -22 -38 -18 -38 20 0 83 -123 159
-205 127z m72 -87 c55 -20 69 -85 27 -127 -21 -21 -32 -24 -61 -20 -43 7 -62
31 -63 78 0 35 17 60 50 72 8 3 15 6 16 6 1 1 15 -4 31 -9z"/>
<path d="M8504 8346 c-76 -34 -116 -144 -79 -217 10 -19 26 -44 37 -55 19 -21
19 -21 -4 -29 -18 -6 -6 -10 50 -18 132 -18 231 24 273 117 27 59 25 72 -6 52
-32 -21 -35 -21 -35 12 0 35 -37 99 -72 125 -35 26 -121 33 -164 13z m126 -98
c43 -47 8 -128 -55 -128 -46 0 -75 32 -75 81 0 28 6 42 22 53 33 23 83 20 108
-6z"/>
<path d="M7660 7902 c0 -176 11 -245 50 -322 13 -26 27 -40 40 -40 27 0 26 28
-5 165 -13 60 -32 167 -42 237 -12 89 -21 128 -30 128 -10 0 -13 -37 -13 -168z"/>
<path d="M8382 6513 c-42 -20 -69 -55 -83 -105 -13 -52 -4 -94 32 -140 33 -42
35 -48 13 -48 -8 0 -13 -4 -10 -9 10 -15 139 -22 193 -11 65 14 126 65 149
125 9 25 15 48 12 50 -3 3 -16 -4 -31 -15 -34 -27 -37 -26 -37 15 0 115 -131
191 -238 138z m105 -74 c35 -13 43 -25 43 -71 0 -28 -6 -42 -26 -57 -32 -25
-46 -26 -83 -6 -50 26 -49 108 2 133 29 14 31 14 64 1z"/>
<path d="M5296 4705 c-286 -55 -492 -258 -556 -550 -27 -124 -27 -353 0 -483
28 -139 94 -269 179 -352 129 -127 289 -183 521 -183 148 0 210 9 343 50 l87
26 0 177 0 177 -117 -39 c-185 -62 -334 -68 -432 -18 -41 20 -101 83 -125 127
-41 80 -62 254 -46 378 22 175 85 285 189 333 100 47 262 29 433 -48 l42 -19
63 161 c34 89 60 165 57 169 -9 14 -159 67 -239 84 -113 24 -301 28 -399 10z"/>
<path d="M11500 4713 c-232 -39 -411 -163 -499 -345 -50 -105 -68 -173 -83
-320 -13 -130 -1 -302 28 -413 43 -164 154 -320 285 -398 223 -132 596 -139
841 -16 113 57 231 191 279 318 80 213 82 559 4 767 -82 218 -248 353 -492
400 -69 13 -300 18 -363 7z m289 -359 c64 -25 127 -102 154 -188 19 -62 22
-93 22 -236 0 -213 -22 -295 -97 -370 -52 -53 -110 -74 -203 -74 -158 0 -247
75 -292 247 -34 127 -16 395 33 488 21 42 82 107 115 125 72 37 188 40 268 8z"/>
<path d="M13079 4705 c-287 -47 -497 -224 -577 -487 -48 -156 -51 -389 -6
-565 91 -363 368 -542 804 -518 176 10 270 24 428 67 l82 22 0 418 0 418 -335
0 -335 0 0 -159 c0 -118 3 -160 13 -164 6 -2 64 -5 127 -5 63 0 120 -1 126 -1
6 -1 9 -41 7 -118 l-3 -118 -37 -8 c-21 -5 -81 -7 -133 -5 -184 8 -278 85
-325 265 -18 70 -21 246 -4 323 26 122 103 231 192 270 114 51 285 44 465 -17
41 -14 75 -23 77 -21 8 8 125 302 125 314 0 15 -111 53 -230 79 -105 22 -352
28 -461 10z"/>
<path d="M14462 4709 c-211 -35 -385 -155 -476 -328 -129 -245 -126 -665 6
-913 130 -243 414 -366 762 -329 204 22 340 84 453 205 111 121 168 273 181
490 14 228 -12 392 -86 539 -91 183 -239 290 -460 333 -81 15 -295 17 -380 3z
m314 -360 c66 -31 120 -100 147 -183 19 -61 22 -93 22 -236 0 -207 -19 -283
-92 -361 -58 -62 -114 -84 -214 -83 -175 1 -268 102 -299 325 -14 95 -6 240
15 324 35 132 102 207 212 235 56 14 159 4 209 -21z"/>
<path d="M6002 3928 l3 -773 208 -3 207 -2 0 315 0 315 245 0 245 0 0 -315 0
-315 208 2 207 3 3 773 2 772 -210 0 -210 0 0 -285 0 -285 -245 0 -245 0 0
285 0 285 -210 0 -210 0 2 -772z"/>
<path d="M7490 3925 l0 -775 455 0 455 0 0 170 0 170 -247 2 -248 3 0 145 0
145 233 3 232 2 0 165 0 165 -232 2 -233 3 -3 118 -3 117 251 0 250 0 0 170 0
170 -455 0 -455 0 0 -775z"/>
<path d="M8500 3925 l0 -775 205 0 205 0 0 290 0 290 230 0 230 0 0 170 0 170
-230 0 -230 0 0 145 0 145 250 0 250 0 0 170 0 170 -455 0 -455 0 0 -775z"/>
<path d="M9880 3925 l0 -775 506 2 506 3 1 168 2 167 -297 0 -298 0 0 605 0
605 -210 0 -210 0 0 -775z"/>
<path d="M8748 2863 c-2 -4 -3 -18 -2 -30 1 -13 2 -136 3 -274 l1 -250 28 3
27 3 0 275 0 275 -27 3 c-14 2 -28 0 -30 -5z"/>
<path d="M10760 2589 l0 -280 28 3 27 3 5 140 c3 88 10 148 18 163 16 27 50
42 98 42 80 0 94 -32 94 -217 l0 -134 28 3 27 3 1 134 c2 156 -5 195 -41 230
-23 23 -33 26 -99 26 -65 0 -78 -3 -100 -24 l-26 -24 0 106 0 107 -30 0 -30 0
0 -281z"/>
<path d="M7364 2792 c-6 -4 -17 -24 -23 -44 -8 -23 -22 -42 -38 -50 -39 -19
-41 -38 -5 -38 l31 0 3 -149 c3 -130 5 -152 22 -170 24 -27 70 -39 116 -31 27
4 36 11 38 29 3 22 1 23 -31 17 -26 -5 -40 -1 -60 15 -27 20 -27 21 -27 155
l0 134 54 0 c36 0 56 4 59 13 9 24 -7 33 -60 31 l-53 -1 0 48 c0 48 -5 56 -26
41z"/>
<path d="M7760 2697 c-24 -8 -35 -18 -35 -32 0 -21 2 -22 87 -9 26 3 58 4 71
0 26 -6 47 -43 47 -81 0 -21 -5 -24 -57 -30 -99 -10 -117 -14 -151 -35 -83
-51 -58 -179 39 -199 46 -10 105 2 139 27 30 22 40 20 40 -10 0 -13 7 -18 25
-18 l25 0 0 150 c0 170 -10 209 -59 234 -35 19 -121 20 -171 3z m170 -223 c0
-50 -26 -90 -69 -107 -42 -17 -93 -14 -110 7 -23 27 -23 63 1 90 19 23 34 28
93 35 39 4 73 5 78 3 4 -2 7 -14 7 -28z"/>
<path d="M8269 2687 c-19 -12 -39 -34 -46 -47 -25 -49 -10 -125 31 -159 14
-12 14 -16 -4 -38 -24 -31 -25 -51 -5 -80 14 -20 14 -22 -5 -28 -30 -9 -60
-54 -60 -89 0 -69 59 -109 160 -109 142 0 221 61 203 157 -7 33 -56 76 -91 78
-15 0 -31 2 -37 3 -5 2 -35 3 -66 4 -47 1 -58 4 -62 20 -6 26 22 51 59 51 116
0 182 84 144 184 -9 25 -8 26 26 26 31 0 35 3 32 22 -3 22 -7 23 -124 25 -112
2 -124 1 -155 -20z m146 -40 c20 -17 27 -32 27 -60 0 -72 -46 -105 -118 -85
-39 10 -54 33 -54 83 0 75 87 113 145 62z m55 -345 c18 -15 21 -24 15 -50 -9
-44 -43 -63 -118 -69 -89 -8 -127 12 -127 67 0 57 24 70 126 70 64 0 87 -4
104 -18z"/>
<path d="M9368 2703 c-16 -4 -18 -22 -18 -199 l0 -194 30 0 30 0 0 118 c0 136
11 183 47 212 34 26 102 27 134 1 23 -18 24 -26 29 -173 l5 -153 28 -3 27 -3
0 151 c0 170 -10 209 -59 234 -56 29 -149 18 -190 -23 -19 -19 -19 -19 -25 10
-3 16 -9 28 -13 28 -5 -1 -16 -3 -25 -6z"/>
<path d="M9992 2693 c-105 -51 -126 -248 -37 -337 43 -43 111 -60 187 -46 58
11 63 14 73 49 7 22 5 23 -16 17 -13 -5 -50 -10 -82 -13 -77 -7 -114 9 -138
61 -35 77 -36 76 116 76 l135 0 0 43 c0 60 -36 128 -80 149 -44 22 -115 23
-158 1z m130 -44 c18 -10 48 -65 48 -89 0 -6 -39 -10 -105 -10 -58 0 -105 2
-105 5 0 20 32 75 51 89 27 18 81 21 111 5z"/>
<path d="M11395 2692 c-38 -24 -59 -49 -73 -87 -43 -119 -7 -236 87 -285 29
-15 146 -15 184 -1 20 8 27 17 27 37 0 21 -3 25 -17 19 -10 -4 -50 -10 -89
-12 -67 -5 -72 -4 -102 23 -20 19 -35 44 -41 72 l-9 42 140 0 141 0 -7 52 c-8
60 -24 94 -60 128 -37 33 -137 40 -181 12z m136 -45 c21 -16 39 -51 39 -76 0
-20 -6 -21 -100 -21 -84 0 -100 3 -100 15 0 24 28 73 47 84 25 14 95 13 114
-2z"/>
<path d="M11857 2693 c-2 -10 -4 -99 -3 -198 l1 -180 28 -3 27 -3 1 93 c1 122
6 166 27 200 19 33 73 61 110 56 23 -3 27 1 30 25 3 26 2 27 -42 27 -39 0 -52
-6 -85 -36 l-40 -35 -3 33 c-2 25 -8 34 -25 36 -14 2 -23 -3 -26 -15z"/>
<path d="M12339 2687 c-72 -48 -102 -135 -81 -234 20 -97 81 -145 182 -145 85
0 130 17 130 49 0 22 -3 24 -22 18 -13 -4 -53 -9 -90 -12 -67 -5 -68 -5 -103
30 -19 19 -35 44 -35 55 0 11 -3 27 -6 36 -5 13 12 16 133 18 l138 3 -3 45
c-8 101 -66 160 -157 160 -38 0 -61 -6 -86 -23z m145 -49 c15 -13 29 -38 32
-55 l7 -33 -102 0 c-100 0 -101 0 -101 24 0 13 13 38 29 55 37 39 96 43 135 9z"/>
<path d="M9050 2505 l0 -195 30 0 30 0 0 195 0 195 -30 0 -30 0 0 -195z"/>
</g>
</svg>
